<svg xmlns="http://www.w3.org/2000/svg" width="71" height="74">
    <path d="M7.695 72.8l-.142-.258-.258-.141.258-.141.142-.258.14.258.259.141-.259.141-.14.258" fill="#bfbfbf"/>
    <path d="M70.1 35.3c0 3.84-.613 7.52-1.76 10.973-.933 2.8-2.2 5.44-3.773 7.88l-.013.013c-.6891 1.06-1.4324 2.0836-2.227 3.067l-.08.095c-1.4304 1.7514-3.0291 3.3584-4.773 4.798h-.013a34.241 34.241 0 0 1-5.307 3.627c-2.7147 1.5058-5.6212 2.6361-8.64 3.36-.547.147-1.107.267-1.667.373-2.12.4-4.306.614-6.546.614-.627 0-1.267-.014-1.88-.054-.334-.013-.654-.04-.974-.066-7.28-.587-13.92-3.427-19.253-7.8-5.9999-4.947-10.32-11.867-11.96-19.774C.7454 40.0689.4998 37.6876.501 35.3c0-5.92 1.48-11.494 4.093-16.36a34.43 34.43 0 0 1 4.2671-6.24 33.863 33.863 0 0 1 3.6399-3.68c1.3984-1.2153 2.8919-2.3169 4.466-3.294.827-.52 1.667-.986 2.534-1.426a33.17 33.17 0 0 1 4.306-1.854 35.716 35.716 0 0 1 3.76-1.08c.694-.16 1.4-.293 2.107-.413.5706-.0953 1.1443-.171 1.72-.227A34.326 34.326 0 0 1 35.301.5c1.333 0 2.653.08 3.933.226.493.054.973.12 1.453.187 16.667 2.587 29.414 17 29.414 34.387" fill="#dad9d9"/>
    <g fill="#b4b3b3">
        <path d="M42.74 20.9c.187.546-1.56 2.2-1.56 2.2l-.493.346-1.346.934-2.2 1.013-3.387.373-2.307-1.933-.813-1.653-1.653.826-.467 2.107-.453 2.213s-1.56 1.56-1.467 2.107-.587 2.56-.587 2.56l-1.706 2.027 2.653-1.654c.28 0 2.48 1.014 2.48 1.014l-.36 1.92.36 1.28 1.84.826.733 1.294 1.28 1.92s-1.013.56-1.653.56-1.827 2.013-1.827 2.653 2.654 2.2 2.654 2.2.64-.093.92.467c.278.546.453 1.373.826 1.373.36 0 1.28-.92 1.747-.467.453.467.453 3.494.453 3.494l1.373 1.653 1.467.733-.827 2.107-1.373.733s-.36 1.107-.64 1.467c-.28.373-2.013.92-2.293.92s-2.107.453-2.107.453l.827 1.107-.64.827.813 1.094s-1.92.746-2.2 0c-.267-.734-.547-1.921-.547-1.921v-1.187l-1.373-1.013-.467-2.933c0-.467-.813-2.12-.813-2.12l-1.6-.36.68 2.48-1.467 1.466 1.467 2.48s1.653-.373 1.467.08c-.187.467-.547 2.12-.547 2.12s-.64 1.387-1.6 1.242l-2.64-.535c-.52-.133-.933-.293-1-.44-.173-.359-1.093-.547-1.093-1.28l-.027-1.027-.066-1.08 1.186-.466s-.827-.547-.92-.92c-.08-.36-1.28-1.734-1.28-1.734s-1.56-.466-1.56-.093l-.013.147v.013c-.054.387-.254.933-.254.933l-.92-.36-1.013-.373-1.653.653-.267 1.374-1.387-.827s-.173-.467-.453-.64c-.28-.187-2.573-2.12-2.573-2.12L9.1 52.54l-1.04-1.094-.92-1.466s-.093-1.014-.453-1.094c-.373-.093-1.2-.558-1.2-.558L4.02 46.406c-.28-.28-1.56-1.373-1.56-1.653 0-.267-1.16-2.227-1.226-2.347C.7451 40.069.4991 37.6876.5 35.3c0-5.92 1.48-11.494 4.094-16.36 0 0 .346.853.44 1.226.093.36 1.013.267 1.373.187.373-.093.547-.733 1.013-1.107.454-.36 1.28-1.106 2.2-1.746s1.467-1.094 1.654-.64c.173.466-1.014 1.84-1.107 2.2-.093.373-.547 1.84-1.093 1.933-.56.093-1.84 2.2-1.84 2.2s.186.64.186 1.373-.826 2.387-.373 3.027c.2.267.467.613.707.907l.586.746.907-.546.827-2.12.733-1.187-.773-1.28s.226-2.853 1.88-3.4 1.653 0 1.653 0v-1.747l.733-.64 1.92-1.28.094.04 1.106.6 2.56-1.106s.28.373.56 0c.267-.36 2.2 0 2.294 0s1.373 1.106 1.826.826c.467-.266 2.027-.986 2.027-.986s1 1.08 1 1.546c0 .454.827 1.734.827 2.014s1.013.453 1.013.453V17.78l1.013-1.84s.36.466.907 0c.56-.454 3.4-.64 3.4-.64l1.56-1.56 1.28.64 1.013 1.106 2.014.454s.92 0 .92.466c0 .454-.094 1.467 0 1.734.093.28 1.106.92 1.106.92s-.186 1.293 0 1.84"/>
        <path d="M54.94 39.277h2.568l.98-1.237-.306-1.82c-.061-.184-.428-1.958-.428-1.958h-5.383s-.61-1.59-.61-1.957-.674-1.53-.674-1.53v-2.08c.062-.182-.3-1.343-.028-1.343s.824.672.824.672l1.712-.428 1.127-1.04s1.075.55 1.075.734.306.856.489.918.488.978.488.978-.365.795 0 .856 1.224.795 1.224.795l.856-.183s-.304.918 0 .979 1.163.06 1.163.06l1.65-.305.858-.246s.55 1.774.366 1.774 0 1.346-.305 1.529-1.224.49-1.47.55-1.038.185-1.038.307.917.979.977 1.162 1.163.55 1.53.366 1.1-.917 1.285-1.161.673-1.407.856-1.773.733-1.286.55-1.652-.611-1.53-.611-1.774-.183-2.08-.183-2.08-.735.367-.857-.305-.428-1.04-.244-1.896-.428-2.263-.428-2.263l-.244-1.224.428-1.161s.426-.612.182-.856-.794-1.164-.794-1.164.184-.55.366-.488.367-.917.367-.917l-1.04-1.775c-.06-.183-1.407-.305-1.407-.305l.735.794s.428.674-.061.735c-.164.02-.408-.021-.647-.061-.475-.082-.923-.163-.637.244l1.1 1.529s.796.367.489.612l-1.65 1.284.06.856-1.285.123-.78-.672-2.338-.918-1.347.062s-1.1.61-.855-.246-.122-1.773-.49-1.896-2.148-.917-2.148-.917-1.276-.428-1.766-.123-1.652.674-1.652.674l-1.04-.307-1.773 1.101s-.795.49-.979.49-.704-.132-1.01-.336-1.498.274-1.56.457-.488 2.387-.488 2.387v3.608s.122 1.04-.244 1.162c-.131.043-.308-.076-.476-.194-.306-.216-.582-.432-.503.316.122 1.162.428 2.08.734 2.141s1.346.061 1.346.061l.612.795s1.528 1.101 1.59 1.345.55 1.286.55 1.286.612.121 1.161-.123 1.102-.672 1.408-.733l1.712-.307.245 1.53s-.122.611.183 1.1 2.324 1.407 2.324 1.407l1.835.428s1.101.979 1.162 1.162.611 2.385.611 2.385m-2.556-28.012l-.684.979-.368 2.08 1.775 1.712 2.324 1.957c.183 0 2.447-.672 2.568-.856s.061-2.141 0-2.508-.305-.305-.244-1.163-.612-1.222-.919-1.468-.672-.672-1.282-.733-2.264 0-2.264 0-.344-.672-.906-.428 0 .428 0 .428M40.691.915v.145s-.734.113-1.237.297-.783.304-1.09.245l-1.527-.366-1.53-.734 5.384.414M15.49 15.608c.306.122 1.775-.971 1.896-1.22s.55-1.166.918-1.35 1.407-.305 1.774-.305h2.692l1.773-.673s1.223.612 1.528.612 1.163 0 1.468-.122 1.468-.734 1.59-.917.308-1.101.308-1.347.182-.794.61-1.161 1.224-.735 1.53-1.163.794-1.345.549-1.345-1.407-.55-1.896-.428-1.774.55-2.263.917-1.65 1.407-1.65 1.407l-1.713.795-2.325.734-2.563.428c-.128 0-1.9 1.223-2.085 1.223s-1.163-.121-1.406 0-1.714.857-1.836 1.04l-1.04 1.407c-.244.305.062.978.55 1.101l1.59.367m11.256 49.053s.977.793 1.222.61.123-.278.796-.291 1.59-.015 1.223-.319-.307-.857-.856-.919-1.652.367-1.958.367-.428.552-.428.552M7.967 54.384h.55l.92 1.102v.672l-.735-.366-.735-1.408"/>
    </g>
    <path d="M7.967 38.04c-.245.381 1.47 6.498 1.47 6.498l2.1999 3.18 3.6701 2.324h1.712l-1.345-2.692s-.367-1.345 0-1.466.49-1.484-.1231-1.843-3.2039-1.339-3.0699-2.195.6-3.058 0-3.425-3.78-1.59-3.78-1.59l-.734 1.209" fill="#dad9d9"/>
    <path d="M65.3139 52.553l-.7469 1.6-.013.013a36.716 36.716 0 0 1-2.2271 3.067l-.0799.095a34.629 34.629 0 0 1-4.773 4.798h-.013a34.239 34.239 0 0 1-5.307 3.627c-2.7148 1.5057-5.6213 2.636-8.6401 3.36l-1.6669.373c-.24-.426-.4001-.813-.2131-.878.32-.135.9201-.842 1.6531-1.375.307-.239.6539-.453 1.0139-.56 1.1861-.36 2.9331-1.56 3.3861-2.16.467-.587 2.3869-1.6 2.574-2.6.1859-1.013.76-1.747 1.065-2.76s-.612-2.653-.612-2.653l-.173-1.014 2.56-1.84s.56-1.093.826-1.093c.2799 0 2.667-.92 2.667-.92l.9199 3.12 1.0931.52.4669.213s1.4001-.32 1.9731-.64c.12-.053.2-.12.227-.186.133-.28.56-.734 1.093-.974l.2-.078h.014l.253-.055c.7059-.08 2.3729-.947 2.4799-1" fill="#b4b3b3"/>
    <path d="M35.3 70.1c-.6271.0022-1.2541-.0158-1.88-.054 3.62-1.877 8.674-5.124 12.954-10.266a53.148 53.148 0 0 1-1.895 6.834c-.061.022-.12.042-.178.059-.36.107-.707.321-1.014.56-.733.533-1.333 1.24-1.653 1.375-.187.065-.027.452.213.878-2.12.4-4.306.614-6.546.614" fill="#c7c5c5"/>
    <path d="M42.744 69.301l.77-.188a34.31 34.31 0 0 0 8.64-3.36c-2.948 1.6328-6.1178 2.828-9.41 3.548"/>
    <path d="M41.8471 69.486c-.24-.426-.4001-.813-.2131-.878.32-.135.9201-.842 1.6531-1.375.307-.239.6539-.453 1.0139-.56l.1781-.059-.9651 2.5-.77.187-.8969.185" fill="#a4a3a3"/>
    <path d="M54.16 64.552a34.406 34.406 0 0 0 3.3-2.426h.014a35.078 35.078 0 0 1-3.315 2.426m8.921-8.278l.03-.038-.03.038m.038-.049l1.436-2.059-1.436 2.059m1.45-2.072a34.864 34.864 0 0 0 3.772-7.88l.166-.508c-.9298 2.9604-2.2548 5.7818-3.939 8.388m5.532-18.648v-.004.004m0-.039v-.012.012m0-.04v-.018.018m0-.041l.001-.027v.027m0-.043V35.3v.042M22.67 2.865A34.681 34.681 0 0 1 35.21.5c-1.479.0044-2.9563.1019-4.423.292l-1.112.161-2.107.413c-1.682.383-3.32.884-4.898 1.499M35.213.5h.025m.002 0h.008m.01 0h.043-.043m23.523 60.492l1.156-1.107a34.8 34.8 0 0 0-1.156 1.107m4.329-4.756l.008-.01c-.0029.0031-.0056.0065-.008.01"/>
    <path d="M59.937 59.885l.005-.005a.017.017 0 0 1-.005.005m.006-.007l.966-1.008 1.418-1.637a36.497 36.497 0 0 0 2.227-3.067l-1.436 2.059-.008.01-.03.04a34.799 34.799 0 0 1-3.137 3.603"/>
    <path d="M60.909 58.87l1.338-1.542.08-.095-1.418 1.637M40.687.913L39.234.726C37.9502.5788 36.6592.5033 35.367.5c1.818.004 3.595.15 5.32.413M35.209.5h.004m-4.427.292C32.2527.6019 33.73.5044 35.209.5h.026a34.451 34.451 0 0 0-3.841.226l-.608.066M35.249.5h.009m-.016 0h.058-.06m.117 0H35.3h.057"/>
    <path d="M32.447 69.98a34.67 34.67 0 0 1-19.262-7.818c-1.6965-3.0545-3.0655-6.2797-4.084-9.622l.973 1.013 2.573 2.12c.28.173.454.64.454.64l1.386.827.267-1.374 1.653-.653 1.014.373.92.36s.2-.546.253-.933V54.9v.013c.8072 1.4257 1.6929 2.8055 2.653 4.133l.027 1.027c0 .733.92.921 1.093 1.28.067.147.48.307 1 .44 3.133 3.787 5.84 5.92 6.16 6.16.9448.7159 1.919 1.3922 2.92 2.027M8.341 29.246l-.587-.746c1.037-5.48 3.243-11.742 7.738-17.728l1.44.874c-.0916-.0039-.1833-.0059-.275-.006-.188 0-.351.013-.432.053-.2439.123-1.714.857-1.836 1.04s-.794 1.101-1.04 1.407.062.978.55 1.101 1.59.367 1.59.367c.018.006.037.009.06.009.398 0 1.722-.993 1.837-1.23.122-.247.55-1.165.918-1.349.071-.034.166-.068.277-.098a29.427 29.427 0 0 0-2.267 4.146l-.094-.04-1.92 1.28-.733.64v1.747s0-.243-.49-.243c-.244 0-.612.06-1.163.243-1.653.547-1.88 3.4-1.88 3.4l.773 1.28-.733 1.187-.827 2.12-.906.546" fill="#eae9e9"/>
    <path d="M23.367 61.793c-.52-.133-.933-.293-1-.44-.173-.359-1.093-.547-1.093-1.28l-.027-1.027 2.12 2.747m-8.88-4.653l-1.387-.827s-.173-.467-.453-.64c-.28-.187-2.573-2.12-2.573-2.12L9.1 52.54c-.9707-3.1607-1.6094-6.4139-1.906-9.707-.227-2.453-.667-7.84.56-14.333l.586.746.907-.546.827-2.12.733-1.187-.773-1.28s.226-2.853 1.88-3.4c.55-.183.918-.243 1.164-.243.49 0 .49.243.49.243v-1.747l.732-.64 1.92-1.28.094.04C13.3 23.82 13.14 30.62 13.074 33.62c-.082 3.453.293 6.68.96 9.666v.004c-.822-.429-1.63-.957-1.552-1.444.133-.856.6-3.058 0-3.425s-3.78-1.59-3.78-1.59l-.735 1.209c-.245.381 1.47 6.498 1.47 6.498l2.2 3.18 3.67 2.324h.899l.001.004c.6936 1.6662 1.4908 3.2874 2.387 4.854v.013c-.054.387-.254.933-.254.933l-.92-.36-1.013-.373-1.653.653-.267 1.374m1.061-41.523c-.0198.0003-.0394-.0031-.058-.01l-1.59-.366c-.489-.123-.796-.796-.55-1.101l1.039-1.407c.122-.183 1.592-.917 1.836-1.04.08-.04.243-.053.431-.053l.277.006.02.014 1.758 1.081-.13.199c-.111.03-.206.064-.277.098-.367.184-.796 1.102-.918 1.35-.115.236-1.439 1.229-1.838 1.229" fill="#d3d2d2"/>
    <path d="M16.206 50.043h-.899l-3.669-2.325-2.201-3.18s-1.715-6.117-1.47-6.498l.7349-1.21 3.7801 1.591c.5999.367.133 2.57 0 3.425-.0771.487.7299 1.015 1.552 1.444a40.432 40.432 0 0 0 2.172 6.752" fill="#eae9e9"/>
    <path d="M17.367 5.48a33.974 33.974 0 0 1 5.302-2.615l-.254.1c-1.6624.6626-3.27 1.4551-4.808 2.37l-.24.145"/>
    <path d="M16.967 5.726l.4-.246.24-.144-.64.39" fill="#eae9e9"/>
    <path d="M22.415 2.965l.253-.1 1.14-.419-.111.04h-.005l-.036.014-1.24.465"/>
    <path d="M13.194 62.18c-5.9999-4.947-10.32-11.867-11.96-19.774 1.639 7.899 5.952 14.812 11.95 19.756l.01.018" fill="#eae9e9"/>
    <path d="M13.185 62.163c-6-4.945-10.312-11.858-11.951-19.757.067.12 1.2271 2.08 1.2271 2.347 0 .28 1.28 1.373 1.5599 1.653.28.267 1.4661 1.922 1.4661 1.922s.827.465 1.1999.558c.36.08.454 1.094.454 1.094l.92 1.466 1.0401 1.094a49.585 49.585 0 0 0 4.0839 9.622m-5.218-7.778l.735 1.408.7351.366v-.672l-.92-1.102H7.967M7.754 28.5c-.24-.294-.5069-.64-.707-.907-.453-.64.373-2.293.373-3.027s-.186-1.373-.186-1.373 1.28-2.107 1.84-2.2c.547-.093 1-1.56 1.093-1.933.094-.36 1.28-1.734 1.107-2.2-.052-.128-.133-.184-.244-.184-.2799 0-.748.364-1.41.824-.9199.64-1.746 1.386-2.2 1.746-.466.374-.64 1.014-1.013 1.107-.1599.036-.43.073-.688.073-.325 0-.6329-.06-.685-.26-.093-.373-.44-1.226-.44-1.226 1.1888-2.2302 2.6194-4.3228 4.266-6.24a34.783 34.783 0 0 1 3.643-3.679c1.019.576 2.014 1.163 2.99 1.75-4.4959 5.987-6.702 12.249-7.74 17.729" fill="#f3f2f2"/>
    <path d="M9.1 52.54l-1.04-1.094-.92-1.466s-.093-1.014-.453-1.094c-.3729-.093-1.2-.558-1.2-.558l-1.466-1.922c-.2799-.28-1.56-1.373-1.56-1.653 0-.267-1.16-2.227-1.227-2.347C.7454 40.0689.4998 37.6876.501 35.3c0-5.92 1.48-11.494 4.093-16.36s.347.853.44 1.226c.052.2.36.26.685.26.259 0 .528-.037.688-.073.374-.093.547-.733 1.014-1.107.453-.36 1.28-1.106 2.2-1.746.661-.46 1.129-.824 1.409-.824.11 0 .192.056.244.184.173.466-1.013 1.84-1.107 2.2-.093.373-.546 1.84-1.093 1.933-.56.093-1.84 2.2-1.84 2.2a5.496 5.496 0 0 0 .187 1.373c0 .733-.827 2.387-.374 3.027.2.267.467.613.707.907-1.227 6.493-.787 11.88-.5599 14.333.3199 3.52 1 6.76 1.9069 9.707m.336 3.618l-.735-.366-.735-1.408h.5501l.9199 1.102v.672" fill="#e6e5e5"/>
    <path d="M44.934 33.177L40.5 28.98l-.006-.007 1.052.03.612.794s1.528 1.101 1.59 1.345.55 1.286.55 1.286.153.03.374.03h.012l.25.719m-5.15-4.835l-.004-.002-3.32-2.867-.005-.004.685-.076 2.2-1.013 1.151-.798.197.331v1.603s.123 1.04-.244 1.162a.216.216 0 0 1-.058.01c-.123 0-.274-.103-.418-.204s-.282-.204-.378-.204c-.108 0-.166.126-.124.52.064.612.18 1.156.318 1.542m-10.257-8.269l-1.426-1.04-.004-.003c-.206-.409-.41-.838-.41-1.064 0-.466-1-1.546-1-1.546l-1.382.656-.004-.003-6.391-4.208c.43-.083.934-.132 1.168-.132h2.692l1.773-.673s1.223.612 1.528.612 1.163 0 1.468-.122 1.468-.734 1.59-.917c.08-.119.185-.544.249-.896a51.9 51.9 0 0 1 4.896 4.61c-.86.08-2.426.269-2.827.593-.181.156-.344.208-.477.208-.27 0-.43-.208-.43-.208l-1.013 1.84v2.293m-9.006-9.728a28.177 28.177 0 0 1 3.34-3.285l.217-.178 2.316 1.562-.077.069-1.712.795-2.326.734-1.758.303m-8.018-1.324l-.002-.001c1.3984-1.2153 2.8919-2.3169 4.466-3.294a34.411 34.411 0 0 0-4.464 3.295" fill="#c7c5c5"/>
    <path d="M36.455 25.469l-6.928-5.396V17.78l1.014-1.84s.16.208.429.208c.133 0 .296-.052.477-.208.402-.324 1.967-.512 2.827-.592 2.3531 2.5209 4.4367 5.2805 6.217 8.234l-1.15.798-2.2 1.013-.686.076m-8.358-6.439l-2.793-1.954 1.383-.656s1 1.08 1 1.546c0 .226.204.655.41 1.064m16.575 13.428c-.22 0-.374-.03-.374-.03l-.55-1.286c-.062-.244-1.59-1.345-1.59-1.345l-.612-.795s-.628 0-1.052-.029l-.71-.63c-.138-.387-.254-.931-.318-1.543-.041-.394.016-.52.124-.52.096 0 .235.101.379.204s.294.204.417.204a.215.215 0 0 0 .059-.01c.366-.122.244-1.162.244-1.162v-1.603c1.075 1.8185 2.031 3.7048 2.862 5.647l1.134 2.898h-.012M18.91 12.865l-.01-.005-.189-.119a26.869 26.869 0 0 1 1.803-2.388l.006-.008 1.76-.303 2.324-.734 1.712-.795.078-.07 2.984 2.294c-.064.352-.17.777-.248.896-.123.183-1.286.795-1.59.917s-1.162.122-1.469.122-1.528-.612-1.528-.612l-1.773.673h-2.692c-.234 0-.738.05-1.168.132" fill="#a4a3a3"/>
    <path d="M17.631 11.693c-.093 0-.393-.03-.698-.047l-1.44-.874.034-.046a41.578 41.578 0 0 1 5.253-5.77l3.298 1.926-.218.178c-1.2026 1.0003-2.3198 2.0991-3.34 3.285l-.804.125c-.128 0-1.9 1.223-2.085 1.223" fill="#d5d4d4"/>
    <path d="M18.711 12.741l-1.757-1.081-.021-.014.698.047c.184 0 1.958-1.223 2.086-1.223.046 0 .386-.054.804-.125l-.007.008a26.888 26.888 0 0 0-1.803 2.388" fill="#c0bfbf"/>
    <path d="M15.492 10.772l-2.989-1.751c1.3969-1.2168 2.8897-2.3187 4.464-3.295 1.164-.325 2.4-.61 3.698-.83l.116.06a41.585 41.585 0 0 0-5.254 5.77l-.034.046" fill="#dedcdc"/>
    <path d="M17.607 5.336l.236-.139-.236.139"/>
    <path d="M16.967 5.726l.64-.39.236-.139-.876.53" fill="#dedcdc"/>
    <path d="M17.843 5.197a34.535 34.535 0 0 1 4.572-2.232l1.242-.465-1.524.582L19.5 4.3l-1.657.897"/>
    <path d="M16.967 5.726l.876-.529L19.5 4.3l2.632-1.218L19.5 4.3l1.164.596c-1.297.22-2.533.505-3.697.83" fill="#dbdada"/>
    <path d="M23.693 2.486l.004-.001-.004.001"/>
    <path d="M46.374 59.78c1.393-6.723 2.0501-16.263-1.44-26.603 3.532 3.528 6.53 7.004 9.077 10.407-.2966 1.5749-.6988 3.1281-1.204 4.649-1.4 4.2189-3.5824 8.1362-6.433 11.547" fill="#c7c5c5"/>
    <path d="M57.474 62.126l1.307-1.134-1.307 1.134" fill="#a4a3a3"/>
    <path d="M44.48 66.614a53.181 53.181 0 0 0 1.894-6.834c2.8506-3.4107 5.033-7.3281 6.433-11.547a35.696 35.696 0 0 0 1.204-4.65 78.079 78.079 0 0 1 5.68 8.714c-.3153 1.0082-.677 2.0012-1.084 2.976l-1.093-.52-.92-3.12s-2.387.92-2.667.92c-.266 0-.826 1.093-.826 1.093l-2.56 1.84.173 1.014s.92 1.64.612 2.653-.879 1.747-1.065 2.76c-.187 1-2.107 2.013-2.574 2.6-.43.57-2.032 1.683-3.208 2.101" fill="#b5b3b3"/>
    <path d="M43.514 69.113l.965-2.499c1.176-.418 2.778-1.53 3.208-2.101.467-.587 2.387-1.6 2.574-2.6.186-1.013.76-1.747 1.065-2.76s-.612-2.653-.612-2.653l-.173-1.014 2.56-1.84s.56-1.093.826-1.093c.28 0 2.667-.92 2.667-.92l.92 3.12 1.093.52c-1.693 4.107-4.026 7.6-6.453 10.48-2.7147 1.5057-5.6213 2.636-8.64 3.36m8.64-3.36l2.005-1.201-2.005 1.201m5.32-3.627" fill="#969494"/>
    <path d="M59.074 55.486l-.467-.213 1.084-2.976 1.356 2.55c-.573.32-1.973.64-1.973.64" fill="#aeacac"/>
    <path d="M52.154 65.753c2.427-2.88 4.76-6.373 6.453-10.48l.467.213s1.4-.32 1.973-.64l.49.98a37.069 37.069 0 0 1-4.063 6.299l-.013.001a34.399 34.399 0 0 1-5.307 3.627" fill="#8f8e8e"/>
    <path d="M57.474 62.126l.547-.46 1.916-1.78-1.156 1.106-1.307 1.134m2.468-2.246" fill="#929191"/>
    <path d="M57.474 62.126l.547-.461-.547.461" fill="#858383"/>
    <path d="M58.02 61.665c1.016-.8753 1.9806-1.8085 2.889-2.795l-.966 1.008-.0059.007-1.9161 1.78" fill="#8c8b8b"/>
    <path d="M57.474 62.125c1.5641-1.9569 2.9257-4.0674 4.064-6.299l.71 1.502-1.34 1.542c-.9078.9864-1.8717 1.9197-2.887 2.795l-.547.46" fill="#807f7f"/>
    <path d="M23.657 2.5c.012-.006.024-.01.036-.014l-.036.014m.04-.015l.11-.039-.11.039"/>
    <path d="M54.011 43.583c-2.547-3.402-5.545-6.878-9.077-10.406l-.25-.719c.22-.001.506-.033.775-.153.55-.245 1.101-.672 1.408-.733s1.712-.307 1.712-.307l.245 1.53s-.122.611.183 1.1 2.324 1.407 2.324 1.407l1.835.428s1.101.979 1.163 1.162c.026.081.149.56.278 1.066-.0485 1.8882-.2479 3.7695-.596 5.626m.503-9.322h-2.143s-.61-1.59-.61-1.957-.674-1.53-.674-1.53-.061-1.895 0-2.08-.3-1.343-.028-1.343.824.672.824.672l1.564-.392v.001c.5446 2.1744.9016 4.3915 1.067 6.627v.002M40.688 23.913l-.197-.33.196-.137.002-.001v.468m3.058-4.513c-.182 0-.702-.132-1.006-.335v-.005s-1.014-.64-1.107-.92c-.094-.267 0-1.28 0-1.734 0-.466-.92-.466-.92-.466l-2.013-.454-1.014-1.106-1.28-.64-1.56 1.56s-.23.014-.573.048c-1.5306-1.6412-3.166-3.1815-4.896-4.611a3.23 3.23 0 0 0 .059-.45c0-.245.182-.795.61-1.162s1.224-.735 1.53-1.163.794-1.345.549-1.345c-.22 0-1.184-.447-1.73-.447a.636.636 0 0 0-.166.019c-.49.121-1.773.55-2.263.917-.413.31-1.305 1.099-1.573 1.338a53.177 53.177 0 0 0-2.316-1.562c1.1258-.9072 2.3226-1.7225 3.579-2.438 1.6728.0712 3.3373.2772 4.977.616 3.88.802 7.525 2.338 10.827 4.441 2.2901 2.3638 4.2706 5.009 5.894 7.872-.0578.0152-.1131.0387-.164.07-.49.305-1.652.673-1.652.673l-1.04-.307-1.773 1.101s-.795.49-.979.49" fill="#b5b3b3"/>
    <g fill="#969494">
        <path d="M40.491 23.583c-1.7802-2.9538-3.8638-5.7138-6.217-8.235l.573-.048 1.56-1.56 1.28.64 1.014 1.106 2.013.454s.92 0 .92.466c0 .454-.093 1.467 0 1.734.093.28 1.107.92 1.107.92v.005l-.003-.001a.408.408 0 0 0-.223-.051c-.456 0-1.286.357-1.337.508-.061.184-.49 2.387-.49 2.387v1.538l-.197.136"/>
        <path d="M54.607 37.958l-.278-1.066c-.062-.183-1.163-1.162-1.163-1.162l-1.835-.428s-2.017-.918-2.324-1.406-.182-1.102-.182-1.102l-.246-1.529-1.712.307c-.306.061-.857.488-1.408.733-.27.12-.554.152-.774.153l-1.134-2.898a49.081 49.081 0 0 0-2.862-5.647v-2.005l.489-2.387c.05-.15.881-.508 1.337-.508a.408.408 0 0 1 .226.052c.304.203.824.335 1.006.335s.979-.49.979-.49l1.773-1.101 1.04.307s1.163-.368 1.652-.674c.051-.0309.1063-.0541.164-.069l.012.02 1.6 3.16c.534 1.213 1.627 3.692 2.48 7.079l-1.564.392s-.552-.672-.824-.672.09 1.161.028 1.344 0 2.08 0 2.08.674 1.161.674 1.529.61 1.957.61 1.957h2.143a36.455 36.455 0 0 1 .093 3.651v.045m-25.23-27.221l-2.983-2.293 1.573-1.338c.49-.366 1.773-.796 2.263-.917a.629.629 0 0 1 .165-.019c.547 0 1.51.447 1.73.447.246 0-.243.917-.549 1.345s-1.1.795-1.529 1.163-.61.917-.61 1.161c0 .087-.025.258-.06.451"/>
    </g>
    <path d="M59.691 52.297a78.118 78.118 0 0 0-5.68-8.713c.3481-1.8565.5475-3.7378.596-5.626l.332 1.319h2.57l.98-1.237s-.246-1.638-.307-1.82-.428-1.958-.428-1.958h-3.24v-.002c-.1654-2.2355-.5224-4.4526-1.067-6.627v-.001l.148-.036 1.127-1.04s1.075.55 1.075.734.306.856.489.918.488.978.488.978-.365.795 0 .856 1.224.795 1.224.795l.856-.183s-.304.918 0 .979c.2.04.636.053.915.057.332 1.118.598 2.263.812 3.419-.26.057-.503.125-.503.193 0 .079.388.47.676.783.427 2.588.587 5.228.44 7.868-.1513 2.8331-.6562 5.6362-1.503 8.344m-5.885-31.463c-.184 0-.312-.102-.21-.456.14-.49.078-1.001-.067-1.37l1.118 1.598c.002.003.003.006.006.008l-.203.01s-.38.21-.644.21m-.659-2.334a.267.267 0 0 0-.041-.018c-.368-.122-2.15-.917-2.15-.917s-.693-.232-1.253-.232c-.1173-.0024-.2344.011-.348.04-1.6234-2.863-3.6039-5.5082-5.894-7.872 3.712 2.363 6.992 5.443 9.686 8.999" fill="#a5a3a3"/>
    <path d="M57.508 39.2771h-2.569l-.332-1.319v-.045l-.093-3.65h3.24l.428 1.957c.061.182.307 1.82.307 1.82l-.98 1.237m3.245-3.192c-.288-.313-.676-.704-.676-.783 0-.068.242-.136.502-.193v.004l.174.972m-.985-4.395l-.915-.057c-.304-.061 0-.979 0-.979l-.856.183s-.856-.735-1.224-.795 0-.856 0-.856-.306-.917-.488-.978-.49-.735-.49-.918-1.074-.734-1.074-.734l-1.127 1.04-.148.036c-.853-3.387-1.947-5.866-2.48-7.079l-1.6-3.16-.012-.02c.1136-.029.2307-.0424.348-.04.56 0 1.253.232 1.253.232l2.15.917a.267.267 0 0 1 .041.018l.02.026a5.771 5.771 0 0 1 .36.48c.147.371.208.882.068 1.372-.101.354.027.456.21.456.265 0 .645-.21.645-.21l.203-.01a39.722 39.722 0 0 1 5.115 11.076" fill="#898787"/>
    <path d="M43.46 9.501c-3.3-2.103-6.946-3.639-10.826-4.441a31.14 31.14 0 0 0-4.977-.616 28.793 28.793 0 0 1 5.494-2.408c.346.065.691.137 1.039.213 3.021 1.779 6.27 4.144 9.27 7.252" fill="#aeacac"/>
    <path d="M61.047 54.846l-1.356-2.549c.804-2.57 1.34-5.35 1.503-8.344.147-2.64-.013-5.28-.44-7.867.155.167.28.314.301.378.05.148.78.417 1.252.417.0956.0048.191-.0123.279-.05.367-.183 1.1-.918 1.284-1.162s.673-1.407.856-1.773l.039-.075a34.661 34.661 0 0 1 .203 11.345 33.84 33.84 0 0 1-2.387 8.442h-.014l-.2.078c-.533.24-.96.694-1.093.974-.027.066-.107.133-.227.186m-.466-19.737a33.124 33.124 0 0 0-.812-3.419l.248.003s1.468-.244 1.65-.305.858-.246.858-.246.55 1.774.366 1.774 0 1.346-.305 1.529-1.224.49-1.47.55l-.535.114m-1.666-12.957l-.78-.672-2.338-.918-1.144.052c-.003-.002-.004-.005-.006-.008a21.888 21.888 0 0 0-1.118-1.598c-.1-.252-.24-.438-.382-.508-2.694-3.556-5.974-6.636-9.686-8.999-3.002-3.108-6.25-5.473-9.271-7.252 3.0803.6756 6.0645 1.7317 8.884 3.144 3.2838 1.6633 6.3252 3.767 9.04 6.253l-.415.598-.368 2.08 1.775 1.712s2.14 1.957 2.324 1.957c.127 0 1.259-.325 1.979-.584a44.884 44.884 0 0 1 2.754 4.11l.038.51-1.286.123" fill="#9f9d9d"/>
    <path d="M62.307 36.881c-.472 0-1.201-.27-1.252-.417-.021-.064-.146-.211-.301-.379l-.173-.972v-.004l.536-.113c.245-.06 1.162-.367 1.469-.551s.123-1.53.305-1.53-.366-1.773-.366-1.773l-.858.246c-.182.061-1.65.305-1.65.305s-.103 0-.248-.003c-.002-.001-.002-.002-.002-.004-1.1245-3.9319-2.8496-7.6666-5.114-11.072l1.144-.052 2.338.918.78.672 1.286-.123-.038-.51.004.007c2.198 3.77 3.798 7.926 4.598 12.295l-.04.075c-.182.366-.672 1.528-.855 1.773s-.917.979-1.284 1.161c-.0879.038-.1833.0555-.279.051m-8.778-17.873c-.1122-.1669-.233-.3278-.362-.482l-.02-.026c.143.07.282.256.382.508m1.9-1.015c-.183 0-2.323-1.957-2.323-1.957l-1.775-1.712.368-2.08.416-.596c1.9394 1.7504 3.7111 3.6781 5.292 5.758 0 .002.002.002.002.003-.72.259-1.852.584-1.98.584m6.109 37.833l-.49-.98c.12-.053.2-.12.226-.186.133-.28.56-.734 1.093-.974l.2-.078h.014-.014l-1.03 2.218" fill="#828181"/>
    <path d="M34.19 2.249l-1.039-.213.435-.136.604.349" fill="#9a9898"/>
    <path d="M64.567 54.153l.747-1.6c-.107.053-1.773.92-2.48 1l-.253.055a33.835 33.835 0 0 0 2.386-8.442 34.662 34.662 0 0 0-.2-11.333l-.002-.012c.21-.405.684-1.233.512-1.577-.183-.367-.612-1.53-.612-1.774s-.183-2.08-.183-2.08-.2.1-.408.1c-.192 0-.39-.084-.45-.405-.122-.673-.427-1.04-.243-1.896s-.428-2.263-.428-2.263l-.244-1.224.098-.269c4.12 8.24 5.12 15.973 5.267 17.293.253 2.294.333 4.48.267 6.547-.934 2.8-2.2 5.44-3.774 7.88M60.163 21.52c-.8417-1.4199-1.7611-2.7924-2.754-4.111.316-.115.552-.216.589-.272.108-.163.073-1.705.021-2.319 1.3019 1.6662 2.482 3.424 3.531 5.26l-1.41 1.095.023.347m-8.048-9.872c-2.715-2.4867-5.7567-4.5911-9.041-6.255-2.8195-1.4123-5.8038-2.4684-8.884-3.144l-.604-.35a30.786 30.786 0 0 1 1.784-.483A35.955 35.955 0 0 1 43.3 3.62c4.3108 1.749 8.2313 4.3368 11.534 7.613.003.001.004.004.005.005h-.146c-.67 0-1.404.027-1.404.027s-.247-.481-.663-.481c-.0838.0006-.1666.0186-.243.053-.561.244 0 .428 0 .428l-.268.383" fill="#8d8b8b"/>
    <path d="M64.765 33.821c-.8-4.37-2.4-8.525-4.598-12.295l-.004-.006-.024-.347 1.411-1.095a.298.298 0 0 0 .004.008c.453.787.88 1.574 1.253 2.347l-.098.27.244 1.223s.61 1.406.428 2.263.121 1.223.244 1.896c.058.321.257.405.449.405.208 0 .408-.1.408-.1l.183 2.08c0 .244.429 1.407.612 1.774.172.344-.302 1.172-.512 1.577m-7.356-16.412c0-.001-.002-.001-.002-.003-1.5809-2.0799-3.3526-4.0076-5.292-5.758l.268-.383s-.561-.184 0-.428c.0764-.0344.1592-.0525.243-.053.416 0 .663.481.663.481l1.404-.027h.146a38.313 38.313 0 0 1 3.18 3.58c.052.614.087 2.156-.021 2.319-.037.056-.273.157-.59.272m4.84 39.919l-.71-1.502 1.03-2.218h.013l.253-.055c.707-.08 2.373-.947 2.48-1l-.747 1.6-.013.013c-.6891 1.06-1.4324 2.0837-2.227 3.067l-.08.095" fill="#757474"/>
    <path d="M70.099 35.501v-.035.035m.001-.047v-.028.028m0-.046v-.023.023m0-.05v-.016.016" fill="#817f7f"/>
    <path d="M68.34 46.273a46.082 46.082 0 0 0-.266-6.547c-.147-1.32-1.147-9.053-5.267-17.293l.33-.892s.426-.612.182-.856-.795-1.164-.795-1.164.166-.493.34-.493c.0092-.0001.0184.0016.027.005l.017.003c.178 0 .35-.92.35-.92s-.979-1.591-1.04-1.775-1.407-.305-1.407-.305l.735.794s.428.674-.062.735c-.0322.0038-.0646.0054-.097.005-.156 0-.355-.033-.55-.066s-.382-.067-.52-.067c-.198 0-.286.07-.117.31l1.1 1.53s.796.367.49.612l-.24.19c-1.0488-1.8359-2.2285-3.5938-3.53-5.26a2.63 2.63 0 0 0-.022-.19c-.06-.367-.306-.305-.244-1.163s-.612-1.222-.919-1.468-.672-.672-1.283-.733c-.2372-.019-.4751-.028-.713-.027l-.005-.005A35.136 35.136 0 0 0 43.3 3.62c-2.5503-1.0357-5.2111-1.7752-7.93-2.204.418-.102.84-.192 1.264-.276h.001l.201.096 1.528.366c.054.011.106.016.16.016.251 0 .514-.109.93-.261.502-.184 1.237-.297 1.237-.297V.916L38.896.778l.338-.052c.493.054.973.12 1.453.187C57.354 3.5 70.1 17.913 70.1 35.3v.205a34.869 34.869 0 0 1-1.594 10.26l-.166.508" fill="#797676"/>
    <path d="M62.807 22.433l-1.253-2.347-.004-.008.24-.189c.307-.245-.49-.612-.49-.612l-1.1-1.53c-.169-.24-.08-.31.118-.31.137 0 .3269.033.52.067l.55.066c.0324.0004.0648-.0012.097-.005.489-.061.06-.735.06-.735l-.734-.794s1.3469.122 1.407.305 1.04 1.775 1.04 1.775-.172.92-.3501.92l-.0169-.003a.069.069 0 0 0-.028-.005c-.173 0-.338.493-.338.493s.55.919.794 1.164-.182.856-.182.856l-.33.892m-4.788-7.615a38.313 38.313 0 0 0-3.18-3.58l.714.027c.61.061.977.49 1.282.733s.98.612.919 1.468.184.796.244 1.163c.008.043.015.108.021.19m-19.496-13.2c-.0531-.0004-.1061-.0061-.158-.017l-1.528-.366-.202-.096 2.252-.36.01-.002 1.794.138v.144s-.734.113-1.237.297c-.416.152-.679.261-.93.261" fill="#575454"/>
    <path d="M24.078 6.883l-3.297-1.927.108-.098c1.783-.2937 3.5869-.4422 5.394-.444l1.374.03c-1.2567.7155-2.4539 1.5308-3.58 2.438" fill="#c2c1c1"/>
    <path d="M20.889 4.858l2.918-2.412a35.74 35.74 0 0 1 3.76-1.08 40.403 40.403 0 0 1 5.584.67 28.793 28.793 0 0 0-5.495 2.408l-1.373-.03c-1.886 0-3.692.166-5.394.444M29.674.953l1.112-.161-1.112.161" fill="#bebcbc"/>
    <path d="M35.367.5h-.01.01" fill="#c2c1c1"/>
    <path d="M35.235.5h.007" fill="#b5b3b3"/>
    <path d="M33.151 2.036c-1.8435-.3527-3.7094-.5766-5.584-.67l2.107-.413 2.33.085 1.582.862-.435.136" fill="#b2b0b0"/>
    <path d="M33.586 1.9l-1.583-.862 3.367.378-1.784.484m-1.583-.862l-2.33-.085 1.113-.161.608-.066.61.312" fill="#aaa9a9"/>
    <path d="M35.37 1.416l-3.367-.378-.61-.312C32.6685.5791 33.9511.5037 35.235.5h.133c1.31.002 2.607.082 3.866.226l-.337.052-3.59-.276 1.328.638h-.001l-1.264.276" fill="#9f9d9d"/>
    <path d="M36.635 1.14L35.307.502l3.59.276-.01.002-2.252.36" fill="#797575"/>
    <path d="M20.78 4.956l-.115-.06.224-.038-.108.098" fill="#cac8c8"/>
    <path d="M22.133 3.083l1.524-.583c.011-.006.024-.01.036-.014l.004-.001.11-.039-1.674.636"/>
    <path d="M20.665 4.896L19.501 4.3l2.632-1.218 1.674-.636-2.918 2.412-.224.038" fill="#c8c6c6"/>
</svg>