<svg xmlns="http://www.w3.org/2000/svg" width="195" height="110">
    <path d="M30.7373 41.9747s-5.0133-3.1786-12.5893-2.0146c0 0 2.088.3773 3.7533 1.8119 0 0-6.8066-1.5106-11.268.2067 0 0 2.4134.4213 3.7014 1.4534 0 0-7.5347-.1187-13.8347 2.9226h28.8573s-.0426-3.0413 1.38-4.38" fill="#f68812"/>
    <path d="M30.7373 50.7333S25.724 53.912 18.148 52.748c0 0 2.088-.376 3.7533-1.812 0 0-6.8066 1.5107-11.268-.2053 0 0 2.4134-.4227 3.7014-1.4547 0 0-7.5347.12-13.8347-2.9213h28.8573s-.0426 3.0413 1.38 4.3786" fill="#f9aa0c"/>
    <path d="M30.7373 58.6694s-5.0133-3.18-12.5893-2.0147c0 0 2.088.3774 3.7533 1.8107 0 0-6.8066-1.5094-11.268.2066 0 0 2.4134.4227 3.7014 1.4547 0 0-7.5347-.12-13.8347 2.9213h28.8573s-.0426-3.0413 1.38-4.3786" fill="#f68812"/>
    <path d="M30.7373 67.428s-5.0133 3.1787-12.5893 2.0134c0 0 2.088-.376 3.7533-1.8107 0 0-6.8066 1.5093-11.268-.2067 0 0 2.4134-.4213 3.7014-1.4533 0 0-7.5347.12-13.8347-2.9227h28.8573s-.0426 3.0413 1.38 4.38" fill="#f9aa0c"/>
    <path d="M193.7254 54.7614S180.868 39.704 147.9573 39.704H38.0507v15.0574h155.6747" fill="#d3d4d3"/>
    <path d="M193.7254 54.7613s-12.8574 15.056-45.7681 15.056H38.0507v-15.056h155.6747" fill="#e9eae9"/>
    <path d="M121.9347 39.704s-21.316.0213-35.2453-13.6027S66.636.5 51.5014.5l-6.7067 39.204h77.14" fill="#bbbcbd"/>
    <path d="M85.0828 30.6934c4.2279 4.136 9.1346 7.0079 13.9212 9.0106h22.9307s-21.316.0213-35.2453-13.6027S66.636.5 51.5014.5l-.792 4.6333c14.5293.4334 20.7027 12.1907 34.3734 25.5601m.8132 9.0106c-1.776-1.2373-3.5-2.6307-5.1213-4.216C68.2306 23.22 61.996 12.3173 49.8307 10.2627l-.2787 1.6333c11.6347 2.3933 17.8827 13.0573 30.1413 25.0466 1.02.9974 2.0854 1.9054 3.1734 2.7614h3.0293" fill="#be1e25"/>
    <path d="M121.9347 69.8173s-21.316-.0213-35.2453 13.6027-20.0534 25.6013-35.188 25.6013l-6.7067-39.204h77.14" fill="#d3d4d3"/>
    <path d="M85.0828 78.828c4.2279-4.1347 9.1346-7.0067 13.9212-9.0107h22.9307s-21.316-.0213-35.2453 13.6027-20.0534 25.6013-35.188 25.6013l-.792-4.6333c14.5293-.4334 20.7027-12.1894 34.3734-25.56m.8132-9.0107c-1.776 1.2374-3.5 2.6307-5.1213 4.2173C68.2306 86.3027 61.996 97.2053 49.8307 99.26l-.2787-1.6347c11.6347-2.392 17.8827-13.0573 30.1413-25.0467 1.02-.9973 2.0854-1.9039 3.1734-2.7613h3.0293" fill="#ec1d27"/>
    <path d="M32.54 53.004v-13.3h3.52v13.3h-3.52" fill="#d3d4d3"/>
    <path d="M36.06 66.6587v-23.796h1.9907v23.796H36.06" fill="#4c49a7"/>
    <path d="M36.06 54.7613V42.8627h1.9907v11.8986H36.06" fill="#393698"/>
    <path d="M32.54 69.6987v-13.3h3.52v13.3h-3.52" fill="#e9eae9"/>
    <path d="M176.352 44.272v10.4893h17.3734S188.54 48.704 176.352 44.272" fill="#be1e25"/>
    <path d="M176.352 65.2493c12.188-4.4306 17.3734-10.488 17.3734-10.488H176.352v10.488" fill="#ec1d27"/>
    <path d="M154.7253 43.416c0 0 7.7107 1.904 7.7107 11.3493h-4.9667s.2653-8.388-2.744-11.3493" fill="#393698"/>
    <path d="M154.7253 66.1106s7.7107-1.904 7.7107-11.3493h-4.9667s.2653 8.388-2.744 11.3493" fill="#4c49a7"/>
    <path d="M142.9054 52.928v-2.3827h7.1173v2.3827h-7.1173" fill="#393698"/>
    <path d="M142.9054 58.9854v-2.3827h7.1173v2.3827h-7.1173" fill="#4c49a7"/>
    <g fill="#be1e25">
        <path d="M60.9347 35.86V24.6093h.612V35.86h-.612m-1.4907 0V24.6093h.612V35.86h-.612m-1.4906 0V24.6093h.612V35.86h-.612m-1.4921 0V24.6093h.612V35.86h-.612"/>
        <path d="M54.9707 35.86V24.6093h.612V35.86h-.612m3.3613-8.036v-3.2147h3.2147v3.2147H58.332"/>
    </g>
    <path d="M63.88 79.0321l-2.2774 1.1226-.364 2.5133-1.7733-1.8186-2.5027.4293 1.1814-2.2466-1.1814-2.2481 2.5027.428 1.7733-1.8173.364 2.512 2.2774 1.1254" fill="#ec1d27"/>
    <path d="M51.7253 46.6747v-2.7h75.8733v2.7H51.7253" fill="#be1e25"/>
    <g fill="#ec1d27">
        <path d="M51.7253 65.548v-2.7h75.8733v2.7H51.7253"/>
        <path d="M49.552 69.8173V39.704h2.1733v30.1133H49.552m-4.7573 0V39.704h2.1733v30.1133h-2.1733"/>
    </g>
    <path d="M44.7947 54.7614V39.704h2.1733v15.0574h-2.1733" fill="#be1e25"/>
</svg>